<svg xmlns="http://www.w3.org/2000/svg" width="28" height="28" viewBox="0 0 28.45 28.45"><path d="M13.224-5976.55a14.131,14.131,0,0,1-10.059-4.167A14.131,14.131,0,0,1-1-5990.775a14.131,14.131,0,0,1,4.166-10.059A14.131,14.131,0,0,1,13.224-6005a14.131,14.131,0,0,1,10.059,4.167,14.131,14.131,0,0,1,4.166,10.059,14.131,14.131,0,0,1-4.166,10.059A14.131,14.131,0,0,1,13.224-5976.55Zm-3.266-22.767a5.052,5.052,0,0,0-5.046,5.046v7.207a5.051,5.051,0,0,0,5.046,5.045h7.208a5.05,5.05,0,0,0,5.044-5.045v-7.207a5.051,5.051,0,0,0-5.044-5.046Zm7.208,15.856H9.959a3.592,3.592,0,0,1-2.545-1.058,3.562,3.562,0,0,1-1.058-2.545v-7.207a3.6,3.6,0,0,1,1.058-2.545,3.565,3.565,0,0,1,2.545-1.058h7.208a3.59,3.59,0,0,1,2.544,1.058,3.563,3.563,0,0,1,1.059,2.545v7.207a3.588,3.588,0,0,1-1.059,2.545A3.555,3.555,0,0,1,17.167-5983.461Zm-3.6-11.531a4.329,4.329,0,0,0-4.324,4.324,4.329,4.329,0,0,0,4.324,4.325,4.33,4.33,0,0,0,4.325-4.325A4.329,4.329,0,0,0,13.562-5994.992Zm4.685-1.442a1.082,1.082,0,0,0-1.081,1.082,1.082,1.082,0,0,0,1.081,1.081,1.083,1.083,0,0,0,1.082-1.081A1.083,1.083,0,0,0,18.247-5996.434Zm-4.685,8.649a2.886,2.886,0,0,1-2.881-2.883,2.885,2.885,0,0,1,2.881-2.883,2.886,2.886,0,0,1,2.883,2.883A2.886,2.886,0,0,1,13.562-5987.785Z" transform="translate(1.001 6005)"/></svg>