<svg xmlns="http://www.w3.org/2000/svg" width="28" height="28" viewBox="0 0 28.45 28.45"><path d="M13.224-5976.55a14.132,14.132,0,0,1-10.058-4.167A14.131,14.131,0,0,1-1-5990.775a14.13,14.13,0,0,1,4.167-10.058A14.132,14.132,0,0,1,13.224-6005a14.132,14.132,0,0,1,10.059,4.167,14.131,14.131,0,0,1,4.166,10.058,14.132,14.132,0,0,1-4.166,10.058A14.132,14.132,0,0,1,13.224-5976.55Zm-8.45-8.644h0a9.771,9.771,0,0,0,5.3,1.548,9.721,9.721,0,0,0,9.817-9.816c0-.147,0-.3-.011-.448a7.386,7.386,0,0,0,1.73-1.783,6.916,6.916,0,0,1-1.987.534,3.435,3.435,0,0,0,1.517-1.9,6.816,6.816,0,0,1-2.189.833,3.46,3.46,0,0,0-2.52-1.09,3.454,3.454,0,0,0-3.45,3.451,3.87,3.87,0,0,0,.086.79,9.834,9.834,0,0,1-7.115-3.61,3.415,3.415,0,0,0-.469,1.741,3.449,3.449,0,0,0,1.537,2.874,3.463,3.463,0,0,1-1.558-.438v.042a3.466,3.466,0,0,0,2.765,3.387,3.668,3.668,0,0,1-.907.117,4.525,4.525,0,0,1-.653-.052,3.458,3.458,0,0,0,3.226,2.392,6.875,6.875,0,0,1-4.283,1.474A7.077,7.077,0,0,1,4.775-5985.194Z" transform="translate(1.001 6005)"/></svg>